<svg xmlns="http://www.w3.org/2000/svg" xmlns:xlink="http://www.w3.org/1999/xlink" width="587" height="426"><defs><clipPath id="clip0"><rect x="23" y="42" width="587" height="426"></rect></clipPath></defs><g clip-path="url(#clip0)" transform="translate(-23 -42)"><path d="M100.019 3.05828C100.019 3.05828 27.171 54.9377 6.19963 143.244-14.7725 231.551 17.2364 338.623 77.9435 392.712 138.65 446.798 247.922 410.372 296.487 365.115 345.052 319.858 345.052 319.858 345.052 319.858 345.052 319.858 391.41 294.471 452.118 296.678 512.824 298.885 566.907 216.098 581.256 150.971 595.604 85.8458 561.388-0.252161 561.388-0.252161L100.019 3.05828" fill="#DAE3F3" fill-rule="evenodd" fill-opacity="0.411765" transform="matrix(1 0 0 -1 24 462)"></path><path d="M57.4596-0.248586C42.5135 10.5753 11.6464 38.0558 1.74806 85.8833-2.35979 105.732 0.331264 125.052 6.16124 143.214 20.7429 87.2613 55.9032 46.4701 78.4784 24.9478L57.4596 24.9478 57.4596-0.248586M568.172 24.9478 567.074 24.9478C572.443 42.2484 579.346 68.5255 582.112 96.4632 583.745 81.9013 582.381 66.7984 577.618 49.4873 574.968 39.8508 571.685 31.7391 568.172 24.9478M547.697 232.184C523.597 270.533 489.65 300.988 453.131 300.988 452.341 300.988 451.543 300.973 450.752 300.945 448.222 300.853 445.722 300.809 443.245 300.809 386.297 300.809 343.74 324.105 343.74 324.105 343.74 324.105 343.74 324.105 295.2 369.323 292.568 371.774 289.756 374.203 286.786 376.589 313.989 390.656 346.223 420.751 393.174 420.751 399.582 420.751 406.262 420.192 413.243 418.952 481.639 406.821 547.833 370.427 551.143 291.018 552.266 264.037 550.08 245.969 547.697 232.184" fill="#DAE3F3" fill-rule="evenodd" fill-opacity="0.411765" transform="matrix(1 0 0 -1 26 467)"></path><path d="M560.73-0.240332 465.587-0.240332C474.827 24.3348 485.111 58.9204 482.074 85.0457 476.813 130.309 451.557 173.365 399.991 206.486 380.449 219.038 349.725 228.26 316.293 230.246 318.334 242.712 318.424 255.856 317.794 262.791 316.691 274.934 310.899 284.871 310.899 284.871 310.899 284.871 300.008 291.052 286.088 291.052 281.875 291.052 277.383 290.485 272.835 289.011 253.251 282.663 246.356 252.303 248.562 236.294 249.191 231.732 250.33 227.811 251.838 224.367 218.13 215.593 187.101 196.977 167.421 164.534 138.527 116.898 140.361 66.8403 148.116 31.4464L148.116-0.240332 72.0923-0.240332C49.5152 21.3039 14.3518 62.1366-0.231044 118.146 12.7286 158.554 41.1992 193.237 45.0034 215.318 50.5202 247.335 38.3839 287.079 89.136 317.99 139.886 348.904 230.358 337.863 264.56 345.591 269.695 346.752 274.954 348.932 280.418 351.76 283.388 349.372 286.201 346.94 288.832 344.487 337.376 299.222 337.376 299.222 337.376 299.222 337.376 299.222 379.937 275.902 436.891 275.902 439.368 275.902 441.867 275.947 444.398 276.039 445.19 276.067 445.987 276.081 446.777 276.081 483.299 276.081 517.249 245.595 541.351 207.208 536.721 180.397 531.354 169.775 548.106 141.349 563.525 115.188 573.241 93.9181 575.769 71.348 573.003 43.3818 566.1 17.0779 560.73-0.240332" fill="#DAE3F3" fill-rule="evenodd" fill-opacity="0.411765" transform="matrix(1 0 0 -1 32 442)"></path><path d="M322.692-0.186546 229.899-0.186546C231.443 5.37531 235.155 25.8152 235.155 25.8152 235.155 25.8152 203.658 52.8316 202.001 57.2583 200.895 60.209 201.448 114.886 196.75 140.059 192.053 165.232 185.976 170.303 173.266 176.572 160.131 183.052 140.662 189.113 140.662 189.113 140.662 189.113 144.531 180.169 148.122 159.146 151.715 138.122 155.03 102.716 155.859 78.3734 156.611 56.3024 157.134 8.53733 157.227-0.186546L118.156-0.186546C118.82 6.05854 121.428 31.4492 120.217 34.1138 119.684 35.2904 106.789 35.9695 91.1604 36.3626L91.1604 136.186C91.1604 136.186 75.2675 137.297 57.9724 137.297 41.8311 137.297 24.4679 136.329 17.6653 132.591 3.57516 124.846 4.67956 98.0123 4.67956 98.0123L4.67956 31.5708C-3.08862 67.0437-4.92614 117.213 24.0179 164.955 43.7314 197.471 74.8135 216.128 108.578 224.921 108.729 224.578 108.883 224.238 109.04 223.904 107.932 215.083 105.751 198.58 104.744 196.766 103.364 194.276 103.364 194.276 103.364 194.276L96.4554 189.573C96.4554 189.573 109.718 170.763 126.019 167.721 128.233 167.307 130.12 167.129 131.729 167.129 141.971 167.129 140.938 174.359 140.938 174.359L138.452 179.615 140.621 198.424C142.321 198.16 144.049 198.017 145.771 198.017 152.932 198.017 160.012 200.467 164.7 206.724 168.968 212.421 171.608 221.425 173.143 230.814 206.633 228.823 237.41 219.58 256.984 207 308.639 173.806 333.938 130.653 339.208 85.2896 342.25 59.1061 331.948 24.4434 322.692-0.186546" fill="#DAE3F3" fill-rule="evenodd" fill-opacity="0.411765" transform="matrix(1 0 0 -1 175 442)"></path><path d="M65.9419-0.227009 6.3064-0.227009C2.61778-0.227009-0.375892 2.75589-0.375892 6.43429L-0.375892 36.1118C-0.375892 39.7901 2.61778 42.7731 6.3064 42.7731L65.9419 42.7731C69.6318 42.7731 72.6242 39.7901 72.6242 36.1118L72.6242 6.43429C72.6242 2.75589 69.6318-0.227009 65.9419-0.227009" fill="#0C023E" fill-rule="evenodd" transform="matrix(1 0 0 -1 494 302)"></path><path d="M9.12207-0.208886 18.6222 22.7911-0.377878 22.7911Z" fill="#0C023E" fill-rule="evenodd" transform="matrix(1 0 0 -1 521 319)"></path><path d="M-0.377776 2.10902 16.3979 2.10902 16.3979-0.220422 24.6223 4.28017 16.3979 8.77958 16.3979 6.45013-0.377776 6.45013-0.377776 2.10902" fill="#FFFFFF" fill-rule="evenodd" transform="matrix(1 0 0 -1 531 275)"></path><path d="M24.6223 7.17983 7.84663 7.17983 7.84663 9.76847-0.377776 4.76841 7.84663-0.231643 7.84663 2.3571 24.6223 2.3571 24.6223 7.17983" fill="#FFFFFF" fill-rule="evenodd" transform="matrix(1 0 0 -1 531 290)"></path><path d="M11.9491 8.74819 11.1302 8.44616C11.1302 8.44616 8.57778 11.3907 7.25253 14.5979 5.92717 17.8038 5.88135 21.7198 5.88135 21.7198L6.48077 21.9729 2.84141 30.7686C2.19352 30.257 1.57533 29.5984 1.0756 28.7452-0.982382 25.2305-0.778969 19.8366 1.29248 14.5666 3.36267 9.29794 5.57698 4.59802 9.61765 1.6426 12.0016-0.101893 14.0449-0.406713 15.6315-0.153535L11.9491 8.74819" fill="#FFFFFF" fill-rule="evenodd" transform="matrix(1 0 0 -1 508 296)"></path><path d="M0.759269 8.66558-0.375645 8.27462 3.35878-0.209558C3.78166-0.0788367 4.15997 0.0827735 4.48827 0.253267 5.45297 0.75445 5.87723 1.85574 5.47052 2.8249L3.51953 7.48999C3.0858 8.52456 1.86312 9.04764 0.759269 8.66558" fill="#FFFFFF" fill-rule="evenodd" transform="matrix(1 0 0 -1 522 295)"></path><path d="M1.03773 8.65942C0.601334 8.50693 0.126432 8.29955-0.350997 8.02596L3.18889-0.222629 4.38004 0.262177C5.41453 0.681955 5.91511 1.82894 5.50701 2.84469L3.6459 7.49492C3.24286 8.50447 2.08506 9.02794 1.03773 8.65942" fill="#FFFFFF" fill-rule="evenodd" transform="matrix(1 0 0 -1 513 273)"></path><path d="M-0.146052-0.144366-0.146052 99.5336C-0.146052 99.5336-1.25683 126.393 12.9145 134.146 27.0872 141.898 86.8335 137.744 86.8335 137.744L86.8335-0.144366-0.146052-0.144366" fill="#404040" fill-rule="evenodd" transform="matrix(1 0 0 -1 180 443)"></path><path d="M12.9577 61.7407C12.9577 61.7407 9.39157 31.7234 8.01902 29.245 6.64773 26.7666 6.64773 26.7666 6.64773 26.7666L-0.212607 22.0841C-0.212607 22.0841 12.9577 3.35796 29.1465 0.329822 45.3352-2.69957 43.9625 6.93831 43.9625 6.93831L41.4932 12.1706 44.7875 40.8116C44.7875 40.8116 15.4271 54.3043 12.9577 61.7407" fill="#F57C83" fill-rule="evenodd" transform="matrix(1 0 0 -1 272 275)"></path><path d="M-0.221825 182.14 10.6339 186.829C10.6339 186.829 17.5934 175.521 33.7377 168.901 49.882 162.282 50.1605 166.143 50.9947 168.901 51.8302 171.659 50.7162 174.693 50.7162 174.693L51.9109 184.35 58.3672 182.218 80.7783 2.58755 23.1605-0.170572-0.221825 182.14" fill="#FFFFFF" fill-rule="evenodd" transform="matrix(1 0 0 -1 263 437)"></path><path d="M-0.259624 189.833C-0.259624 189.833 3.58881 180.921 7.1611 159.973 10.736 139.024 14.0332 103.745 14.8582 79.4897 15.6818 55.2343 16.2331-0.166683 16.2331-0.166683 16.2331-0.166683 87.1433-0.166683 87.9696-0.166683 88.7932-0.166683 93.7404 27.1194 93.7404 27.1194 93.7404 27.1194 62.4075 54.0393 60.7589 58.4502 59.6589 61.3904 60.2089 115.872 55.5354 140.955 50.8632 166.038 44.8174 171.091 32.1745 177.337 19.1079 183.794-0.259624 189.833-0.259624 189.833" fill="#0C023E" fill-rule="evenodd" transform="matrix(1 0 0 -1 316 443)"></path><path d="M1.32144-0.161029C1.05006-0.161029 0.829778 0.136263 0.829778 0.502522 0.829778 2.46538 0.571174 30.3571 0.322326 57.3304 0.0716194 84.3078-0.186985 112.203-0.186985 114.176-0.186985 114.543 0.0332933 114.839 0.304673 114.839 0.576052 114.839 0.79633 114.543 0.79633 114.176 0.79633 112.213 1.05493 84.321 1.30471 57.3476 1.55449 30.3704 1.81309 2.47468 1.81309 0.502522 1.81309 0.136263 1.59374-0.161029 1.32144-0.161029" fill="#788CBD" fill-rule="evenodd" transform="matrix(1 0 0 -1 352 411)"></path><path d="M0.363835 37.8954-0.184374-0.0981985 83.3042-0.0981985C83.3042-0.0981985 86.8749 32.1552 85.501 35.1607 84.1286 38.1688 0.363835 37.8954 0.363835 37.8954" fill="#0C023E" fill-rule="evenodd" transform="matrix(1 0 0 -1 210 443)"></path><path d="M23.9517-0.269274C20.2903 1.09532 15.5897 3.35343 12.1535 6.16713 6.13388 11.0973 2.27793 16.9698-0.221163 22.7307 2.56085 19.518 5.63908 16.7383 8.7321 14.0581 12.6496 10.6641 18.5273 7.99885 24.7789 7.01152L23.9517-0.269274" fill="#945168" fill-rule="evenodd" transform="matrix(1 0 0 -1 291 251)"></path><path d="M62.5292 87.4853C62.5292 87.4853 68.3241 77.498 69.427 65.2932 70.5314 53.0871 69.427 21.7419 59.4924 8.42704 49.559-4.8879 28.8642-1.00376 19.4817 7.04069 10.8726 14.4228 2.37439 22.5745 0.167184 38.6634-2.04013 54.7523 4.85779 85.2663 24.4496 91.6456 44.0403 98.0261 62.5292 87.4853 62.5292 87.4853" fill="#F57C83" fill-rule="evenodd" transform="matrix(1 0 0 -1 280 244)"></path><path d="M72.7585-0.111284C72.7585-0.111284 71.7798-0.111284 70.2916-0.0699993 69.943-0.0562378 69.5543-0.0699993 69.1508-0.0562378 67.7175-0.0149534 65.9746 0.0249223 64.2184 0.0799682 63.8296 0.0951383 63.4274 0.1089 63.0386 0.122661 61.2957 0.163946 59.8075-0.0562378 58.4132 0.0249223L58.373 0.0249223C58.0781 0.0400925 57.6491-0.00119194 57.3005-0.0149534 57.1262-0.0301235 56.9653-0.0424763 56.8581-0.0301235 56.0536 0.122661 55.8928 0.313913 55.0213 0.712996 53.8952 1.23734 38.6504 4.73134 26.2492 4.65018 13.8626 4.59514 2.74838 3.72817 0.938473 5.28321-0.884846 6.86578-1.9842 22.8414 8.59373 23.8887L21.5983 18.8245C21.5983 18.8245 51.2942 22.4424 62.1805 14.2006 73.0936 5.95752 72.7585-0.111284 72.7585-0.111284" fill="#F57C83" fill-rule="evenodd" transform="matrix(1 0 0 -1 295 426)"></path><path d="M16.7502-0.0570087C16.455-0.0437575 16.0257-0.0800791 15.6768-0.0921863 15.4085 0.2941 14.8437 0.997462 14.5364 1.28803 11.1823 4.37537 3.07881 6.37306 0.140608 7.01474-0.12772 7.07528-0.303507 7.31742-0.235052 7.55842-0.181386 7.80171 0.100359 7.947 0.382104 7.89857 4.66195 6.96631 13.7449 4.58005 16.3208 0.670567 16.4013 0.561603 16.616 0.186279 16.7502-0.0570087" fill="#293D8A" fill-rule="evenodd" transform="matrix(1 0 0 -1 337 425)"></path><path d="M18.7472-0.102363C18.3586-0.0930766 17.9566-0.0825377 17.568-0.059999 13.9097 6.53686 7.92498 8.43053 0.529366 10.7827L0.0911645 10.9272C-0.16207 11.0121-0.316227 11.2943-0.2277 11.5566-0.142023 11.8072 0.130099 11.9595 0.408763 11.8734L0.833565 11.7303C8.65398 9.24819 14.9469 7.25372 18.7472-0.102363" fill="#293D8A" fill-rule="evenodd" transform="matrix(1 0 0 -1 341 425)"></path><path d="M20.7416-0.10958C20.3905-0.099869 19.9988-0.104062 19.5924-0.094241 17.3572 4.78433 9.95766 12.9479 0.1677 14.8511-0.114636 14.9001-0.298286 15.1707-0.250965 15.4636-0.190244 15.7439 0.0703977 15.9317 0.340504 15.8826 10.4249 13.9178 18.5605 5.37008 20.7416-0.10958" fill="#293D8A" fill-rule="evenodd" transform="matrix(1 0 0 -1 345 426)"></path><path d="M19.6864 6.30637C19.6864 6.30637 25.7642 9.21158 30.0462 17.3711 34.3282 25.5305 33.7754 32.8612 33.7754 32.8612 33.7754 32.8612 41.5102 34.1059 53.1131 30.6485 64.7148 27.1911 78.5274 22.4876 90.1303 29.127 101.733 35.7664 101.733 46.4153 96.0693 50.8406 89.7271 55.7981 77.1468 52.778 77.1468 52.778 77.1468 52.778 81.9802 57.48 79.3566 60.2462 76.7316 63.0124 67.2023 59.416 67.2023 59.416 67.2023 59.416 55.5993 68.6825 33.6379 67.5768 11.6751 66.4698 1.17771 51.1174-0.0652883 33.9682-1.30839 16.8176 4.90829-0.331609 4.90829-0.331609L19.6864 6.30637" fill="#0C023E" fill-rule="evenodd" transform="matrix(1 0 0 -1 267 198)"></path><path d="M6.15619-0.300283C5.88995-0.300283 5.6109-0.293378 5.31507-0.281077 3.60766-0.216661 1.46137 0.058805-0.00353227 0.955015-0.436787 1.22088-0.272757 1.91283 0.258518 1.91283 0.259953 1.91283 0.259953 1.91283 0.261388 1.91283 1.1726 1.90873 2.06273 1.64017 2.97262 1.57295 3.81794 1.51275 4.67308 1.47703 5.51983 1.43873 6.01181 1.41682 6.59508 1.37291 7.18938 1.37291 8.07962 1.37291 8.9894 1.47153 9.63713 1.89093 12.4689 3.72306 6.96376 5.98408 5.79877 6.82267 3.36228 8.57808 3.85161 11.6092 4.1067 14.2087 4.43609 17.5509 4.40386 21.2069 5.71046 24.3558 5.8044 24.5806 6.04548 24.6998 6.26834 24.6998 6.52079 24.6998 6.75204 24.5478 6.72257 24.2216 6.35389 20.2093 5.40481 16.2491 5.14685 12.2176 5.03757 10.5403 4.9114 8.73152 6.44639 7.65717 7.55387 6.88159 8.89966 6.5116 9.99742 5.71682 10.9493 5.02615 11.8983 3.9176 11.7287 2.68162 11.5801 1.58256 10.6633 0.934406 9.71705 0.475403 8.44687-0.14124 7.43476-0.300283 6.15619-0.300283" fill="#945168" fill-rule="evenodd" transform="matrix(1 0 0 -1 326 220)"></path><path d="M5.67749 3.21577C5.2819 1.02467 3.65837-0.524404 2.04896-0.245533 0.440864 0.0334368-0.542485 2.03727-0.148097 4.22708 0.247501 6.41818 1.87102 7.96854 3.48043 7.68967 5.08853 7.4107 6.07309 5.40687 5.67749 3.21577" fill="#0C023E" fill-rule="evenodd" transform="matrix(1 0 0 -1 337 208)"></path><path d="M6.6858 3.72847C6.29487 1.25706 4.44496-0.530245 2.55174-0.26626 0.658521-0.00103402-0.559028 2.21704-0.168093 4.68711 0.222842 7.15862 2.07418 8.94716 3.96751 8.68194 5.8593 8.41671 7.07685 6.19864 6.6858 3.72847" fill="#0C023E" fill-rule="evenodd" transform="matrix(1 0 0 -1 315 207)"></path><path d="M0.721381 0.340127C2.0531 0.120107 3.39739 0.345548 4.74016 0.252438 5.06387 0.230861 5.38205 0.183562 5.70566 0.152526 5.93426 0.132331 5.2773 0.22002 5.59678 0.168682L5.80206 0.134988C5.97005 0.105333 6.13814 0.071533 6.30341 0.0324184 6.58981-0.0364574 6.86668-0.14179 7.15319-0.203864 7.41346-0.259134 7.70269-0.31855 7.96436-0.306433 8.11174-0.287514 8.2563-0.268594 8.40368-0.248399L8.12692-0.298355 8.6723-0.240321C9.43662-0.0648367 9.90771 0.801849 9.69418 1.52536 9.63226 1.73327 9.53856 1.92225 9.40355 2.09369L9.22873 2.31095 9.38978 2.13015 9.21355 2.35963C9.13775 2.48378 9.03722 2.58369 8.90914 2.65788L8.58684 2.8982C8.23429 3.13842 7.77014 3.27882 7.35154 3.38416 6.55685 3.58526 5.72214 3.68783 4.90413 3.69197 4.08873 3.69601 3.28439 3.61226 2.47874 3.50288 1.7681 3.40712 0.97753 3.16956 0.400382 2.74971-0.0444628 2.42436-0.318505 2.00728-0.2414 1.43629-0.176658 0.963835 0.203444 0.426541 0.721381 0.340127" fill="#0C023E" fill-rule="evenodd" transform="matrix(1 0 0 -1 337 196)"></path><path d="M11.1761 2.23C11.0072 2.33118 10.8344 2.41948 10.6551 2.50124 10.5042 2.57002 10.0914 2.78811 10.4035 2.61672L10.0605 2.80109C9.54321 3.06324 9.00665 3.23851 8.44816 3.38128 7.23053 3.69401 5.94851 3.77322 4.6999 3.64087 3.3675 3.49932 2.15109 3.17484 0.996733 2.47528 0.834233 2.37533 0.666554 2.27936 0.531171 2.14303 0.439562 2.02621 0.349273 1.90807 0.261523 1.7887L0.337695 1.90552C-0.0183828 1.65502-0.226078 1.2449-0.222117 0.811365-0.219578 0.394696-0.00416406 0.0469097 0.355671-0.154322 0.790358-0.398375 1.20311-0.281561 1.65201-0.165973 1.42624-0.165973 1.20057-0.165973 0.976116-0.165973 1.34631-0.223102 1.60682-0.238739 1.98087-0.15565 1.99509-0.152993 2.34071-0.0660211 2.1125-0.114055 1.8983-0.160863 2.47619-0.0700069 2.53936-0.0609111 2.6129-0.0504867 3.01407-0.01022 2.58974-0.0518153L2.82445-0.024528C3.02432 0.0001022 3.22684 0.026061 3.42814 0.0416975 4.30909 0.113033 5.1874 0.1533 6.06967 0.181814 6.88877 0.209101 7.72331 0.215539 8.54099 0.180485 8.89311 0.164951 9.24136 0.1533 9.59358 0.142875 9.7896 0.137765 9.70703 0.106594 9.57164 0.149416L9.79092 0.0922865C9.93666 0.0520197 10.0798 0.00398579 10.2204-0.0504867 10.7905-0.268581 11.4728 0.145533 11.6831 0.672475 11.9127 1.24612 11.718 1.90552 11.1761 2.23" fill="#0C023E" fill-rule="evenodd" transform="matrix(1 0 0 -1 312 194)"></path><path d="M10.5658 3.58205C11.8258 6.12594 14.1163 7.9903 16.7649 9.18964 14.4665 9.42415 3.61077 10.4343 0.87191 8.87118-2.19716 7.1215 1.43961 0.0920223 7.78463-0.261167 8.45175-0.298417 9.05778-0.243749 9.63477-0.153196 9.68646 1.13008 9.98096 2.40003 10.5658 3.58205" fill="#0C023E" fill-rule="evenodd" transform="matrix(1 0 0 -1 319 234)"></path><path d="M-0.205194 17.6141C-0.205194 17.6141 0.865053 13.3251 7.01549 8.3447 13.1673 3.36429 22.0825-0.278743 22.0825-0.278743L22.7948 2.9497C22.7948 2.9497 13.5679 7.10094 9.28932 11.6654 5.01057 16.2312 4.4755 18.7214 4.4755 18.7214L-0.205194 17.6141" fill="#D6DCEB" fill-rule="evenodd" transform="matrix(1 0 0 -1 280 233)"></path><path d="M4.23368 10.7038C9.45877 10.9552 12.3743 6.6795 12.7385 3.91324 13.1028 1.14575 10.5925-1.95662 4.71934 0.768727-2.57549 4.15328-0.990233 10.4524 4.23368 10.7038" fill="#0C023E" fill-rule="evenodd" transform="matrix(1 0 0 -1 300 238)"></path><path d="M11.266 0.0770642C11.266 0.0770642 13.4786 16.0181 24.137 26.8456 44.4807 47.51 61.7797 46.2631 61.7797 46.2631 61.7797 46.2631 61.6406 49.1751 55.1363 51.394 49.0292 53.4774 46.2801 52.3646 46.2801 52.3646 46.2801 52.3646 29.5335 50.9783 15.4184 35.3055 1.30208 19.6327-0.220262-0.338555-0.220262-0.338555L11.266 0.0770642" fill="#D6DCEB" fill-rule="evenodd" transform="matrix(1 0 0 -1 272 184)"></path><path d="M21.0895 36.3848C7.79272 38.6575 0.378248 28.1664-0.174358 17.5811-0.726859 6.99564 6.89843-1.05167 17.0853-0.246592 40.0069 1.56298 37.3828 33.5978 21.0895 36.3848" fill="#FFFFFF" fill-rule="evenodd" transform="matrix(1 0 0 -1 261 218)"></path><path d="M9.37122-0.306279C5.80917-0.306279 2.79837 1.48613 1.07829 4.64105-0.765072 8.021-0.61065 12.1819 1.47245 15.2419 1.63092 15.471 1.9451 15.5319 2.17801 15.3747 2.40965 15.2161 2.47065 14.9002 2.31217 14.6684 0.441724 11.9215 0.307671 8.17686 1.96952 5.12902 3.54733 2.23587 6.33194 0.596651 9.62994 0.714615 12.7125 0.797349 15.3251 2.20875 16.987 4.68983 18.8831 7.52203 19.3193 11.4321 18.0976 14.6507 16.8854 17.845 13.5617 20.0223 10.5401 19.6265 10.2665 19.5912 10.0065 19.785 9.96993 20.0644 9.93196 20.3423 10.127 20.5972 10.406 20.6351 13.941 21.107 17.6534 18.6882 19.047 15.0128 20.3824 11.4945 19.9043 7.22109 17.8307 4.12446 15.9807 1.36133 13.0782-0.209986 9.65703-0.302222L9.37122-0.306279" fill="#7588BB" fill-rule="evenodd" transform="matrix(1 0 0 -1 266 208)"></path><path d="M74.8309 172.824C74.8309 172.824 34.7166 162.92 20.7034 146.962 6.69019 131.004 0.0965168 52.3147-0.178394 37.7331-0.453305 23.1503 9.71274 17.097 15.7578 12.9706 21.8031 8.8428 48.4537 1.41443 69.8853 0.313294 91.317-0.78648 111.65 0.313294 111.65 0.313294 111.65 0.313294 111.581 4.99165 114.877 11.8708 117.936 18.25 121.816 19.5745 121.816 19.5745L103.407 26.177C103.407 26.177 100.184 84.0163 95.1642 112.018 89.394 144.211 74.8309 172.824 74.8309 172.824" fill="#0C023E" fill-rule="evenodd" transform="matrix(1 0 0 -1 191 424)"></path><path d="M11.4653-0.19114 11.188-0.133577C10.8422 0.0163413 10.6864 0.411379 10.8394 0.748747 14.708 9.29914 18.7146 26.084 20.9721 37.8599L21.1565 38.8119C21.8398 42.2757 22.6898 46.583 20.9939 49.5568 20.1289 51.0738 18.1762 54.3649 16.2973 57.5288 14.3473 60.8132 12.5053 63.9169 11.9942 64.842 10.9993 66.6509 14.1341 71.4818 18.6722 78.1082 19.8966 79.8997 20.957 81.4461 21.5747 82.4931 23.1926 85.2353 22.1144 87.7471 20.8681 90.6553L20.4446 91.6568C19.3145 94.3762 18.0286 97.0996 16.7878 99.7333 16.2808 100.808 15.7725 101.886 15.2724 102.969 14.6083 104.401 13.9428 105.857 13.2677 107.33 9.27206 116.057 5.14115 125.081-0.149884 133.798-0.342593 134.116-0.235963 134.527 0.0878002 134.716 0.41307 134.903 0.831304 134.8 1.0253 134.481 6.35464 125.699 10.5019 116.64 14.5139 107.879 15.1876 106.406 15.8532 104.952 16.5159 103.521 17.016 102.442 17.5216 101.367 18.0272 100.294 19.2762 97.6472 20.5676 94.909 21.71 92.1616L22.1281 91.1735C23.4004 88.2077 24.7149 85.1402 22.7567 81.8237 22.1158 80.7365 21.0459 79.1727 19.8065 77.3638 17.441 73.9079 12.5161 66.7152 13.1967 65.4794 13.6968 64.5716 15.5334 61.4773 17.4779 58.2023 19.3609 55.0304 21.3192 51.7312 22.1869 50.2102 24.1273 46.8093 23.224 42.2342 22.4998 38.5575L22.3139 37.6135C21.4913 33.3249 17.1376 11.3678 12.0898 0.207798 11.9763-0.0438579 11.7264-0.19114 11.4653-0.19114" fill="#788CBD" fill-rule="evenodd" transform="matrix(1 0 0 -1 321 389)"></path><path d="M34.126-0.190358C33.9528-0.190358 33.7795-0.124945 33.6492 0.00566978 30.4921 3.16594 15.2665 29.3429 14.1331 34.266 13.5127 36.9609 15.0704 43.7961 16.5771 50.4074 17.7442 55.5291 18.9514 60.8256 18.6076 62.2591 18.0946 64.4019 14.2016 67.5609 10.4361 70.6145 5.88775 74.3028 1.18502 78.1191 0.274498 81.5554-0.760791 85.4611 0.124137 109.913 0.709614 126.091 0.920457 131.909 1.087 136.504 1.08562 138.143 1.08562 138.511 1.38645 138.81 1.75706 138.81L1.75706 138.81C2.12768 138.81 2.42851 138.512 2.42851 138.144 2.42988 136.48 2.26334 131.874 2.05112 126.043 1.50456 110.921 0.588754 85.6117 1.57308 81.8941 2.37352 78.8778 7.10851 75.0362 11.2861 71.6465 15.4062 68.3049 19.2965 65.1486 19.9142 62.5671 20.3291 60.8336 19.1971 55.8652 17.8865 50.1141 16.4818 43.9495 14.8905 36.9635 15.4424 34.5633 16.5543 29.7362 31.5019 4.04875 34.6027 0.947064 34.8632 0.684364 34.8619 0.263015 34.5986 0.00430484 34.4671-0.124945 34.2965-0.190358 34.126-0.190358" fill="#788CBD" fill-rule="evenodd" transform="matrix(1 0 0 -1 259 391)"></path><path d="M0.497288-0.175596 0.402465-0.16881C0.0308602-0.116322-0.226807 0.224373-0.175337 0.592 0.322377 4.0947 8.10663 73.8517 8.46329 79.1939 8.48902 79.5669 8.81183 79.8578 9.1861 79.8214 9.55909 79.7971 9.84121 79.4753 9.81676 79.105 9.45872 73.7534 1.66635 3.91019 1.16724 0.403468 1.11983 0.0681813 0.829596-0.175596 0.497288-0.175596" fill="#788CBD" fill-rule="evenodd" transform="matrix(1 0 0 -1 238 380)"></path><path d="M70.135-0.130057 69.8819-0.0831174C68.1689 0.587151 60.6022 3.05495 51.0223 6.17621 31.6875 12.4798 5.20594 21.1107 0.170926 23.6397-0.159051 23.805-0.286927 24.198-0.115895 24.517 0.0551376 24.8371 0.459126 24.9646 0.791754 24.7942 5.73515 22.3121 33.2482 13.3441 51.4532 7.41139 61.0547 4.27978 68.6376 1.80932 70.3882 1.12337 70.7329 0.988083 70.8985 0.609289 70.7586 0.276102 70.6521 0.0235721 70.4003-0.130057 70.135-0.130057" fill="#788CBD" fill-rule="evenodd" transform="matrix(1 0 0 -1 224 398)"></path><path d="M74.5348-0.102241C57.6982-0.102241 25.0563 2.90991 0.259772 11.613-0.0880244 11.7359-0.269214 12.1128-0.146672 12.458-0.0253896 12.8004 0.359652 12.9816 0.703461 12.8599 32.0289 1.86397 75.85-0.0136391 84.0031 1.80317 84.3615 1.8799 84.7172 1.65772 84.7986 1.30206 84.8798 0.946301 84.6534 0.591998 84.2949 0.511308 82.5293 0.11994 79.1171-0.102241 74.5348-0.102241" fill="#788CBD" fill-rule="evenodd" transform="matrix(1 0 0 -1 210 426)"></path><path d="M7.74912 25.6023C13.0697 21.0189 19.808 18.0803 24.4771 12.7795 26.3138 10.6937 27.964 8.47375 29.67 6.28703 30.9115 4.69542 34.2248 2.05575 34.7619 0.054919 34.9993-0.825878 34.9491 0.367173 34.7103 1.25058L34.671 1.36084C34.2044 5.41146 33.8708 9.47808 33.7257 13.5527 33.5805 17.6166 33.8396 21.6965 33.5792 25.7538 33.2131 31.4783 31.3888 37.021 26.6122 40.6066 24.2774 42.3603 21.2772 43.427 19.1304 45.372 17.0934 47.2187 17.9108 49.3336 19.1087 51.3928 20.2292 53.3205 21.5881 55.2137 22.0246 57.4322 22.5211 59.9538 21.5536 62.5551 20.2478 64.702 17.4696 69.272 11.3066 74.3669 5.47094 73.6841 0.603266 73.1141 0.0517939 67.614 0.121102 63.7826 0.188914 60.0575 0.565141 56.3442 0.601237 52.6164 0.639362 48.7876-0.02563 45.0306-0.0812684 41.2191-0.175565 34.7346 2.88295 29.7938 7.74912 25.6023" fill="#8FAADC" fill-rule="evenodd" transform="matrix(1 0 0 -1 84 286)"></path><path d="M71.1535 17.0882C72.5982 20.5316 74.2557 23.7502 76.2944 26.8816 79.0909 31.1775 82.1932 35.3638 84.0703 40.1752 85.9885 45.0872 85.7068 50.3401 85.8959 55.5137 86.0335 59.314 87.1647 63.1049 86.8591 66.9157 86.7135 68.7439 85.6592 71.7008 83.2925 71.3981 81.451 71.1628 80.3569 68.8813 79.6492 67.4261 78.4136 64.8854 77.5577 62.1757 76.6396 59.5109 76.2824 58.468 75.9398 57.4066 75.4874 56.4007 75.2241 55.8151 74.3867 54.3875 73.5969 54.5819 72.2515 54.9136 73.4726 60.4005 73.6723 61.3721 74.6764 66.2522 76.1885 70.7875 76.3988 75.809 76.7031 83.0897 76.1369 91.7568 69.0104 95.7382 67.1464 96.7785 64.7864 97.3984 63.0164 95.8414 61.2701 94.3067 60.7767 91.6445 60.5173 89.4542 59.7223 82.7301 61.3059 76.3629 63.4622 70.0366 65.2428 64.8128 67.3648 59.4223 67.5196 53.8363 67.669 48.4591 64.8684 43.694 63.5548 38.6142 61.4606 30.5193 61.8932 26.2273 61.884 23.6062 61.8694 20.3214 61.9897 17.0724 62.2292 13.7982 62.4515 10.7884 62.7121 7.77734 63.0798 4.78199 63.1552 4.17531 63.2241 3.54218 63.3047 2.90895 62.1472 5.69405 61.7424 8.88361 60.7833 11.6819 59.0807 16.6573 57.1016 21.5295 55.4666 26.5287 54.1158 30.6594 52.8405 34.8178 51.056 38.7886 49.3838 42.5148 47.3637 46.4526 44.2433 49.1861 42.3571 50.8384 40.0704 51.8047 37.5477 51.7849 35.9342 51.7729 34.4842 51.2152 32.9433 50.808 31.0468 50.307 29.5549 50.4801 27.9948 51.6778 22.8871 55.6009 21.3338 62.6344 17.5526 67.6018 14.7322 71.3069 8.04065 77.6225 3.11997 73.5817 0.509891 71.4391-0.209894 67.2978-0.072916 64.1227 0.0990615 60.1401 1.84102 56.4972 3.9159 53.1661 6.12244 49.625 8.97085 46.4539 10.9985 42.8123 12.1975 40.6617 12.3851 38.601 12.1944 36.174 12.0156 33.8886 11.8156 31.6746 12.5953 29.4698 14.9368 22.8488 22.2484 23.7727 27.9349 23.5995 31.914 23.4793 36.1828 22.8871 39.9603 21.6155 44.3265 20.1469 47.1666 17.3076 48.7277 12.9932 49.8561 9.86967 50.4607 6.32458 52.5879 3.67166 53.588 2.42394 54.9122 1.50251 56.3687 0.858875 58.5859-0.119277 65.3473-0.547569 65.3976 0.0697342 65.5643 2.13574 66.5446 4.3154 67.1583 6.27566 68.3092 9.95169 69.6626 13.5378 71.1535 17.0882" fill="#8FAADC" fill-rule="evenodd" transform="matrix(1 0 0 -1 69 337)"></path><path d="M37.7453 72.1289C37.1561 75.9225 37.2687 80.1029 35.4732 83.5866 35.3448 83.8356 35.0058 83.8992 34.7741 83.7708 33.4871 83.0567 33.4341 80.9772 33.3282 79.7029 33.1547 77.5889 33.2845 75.4696 33.0236 73.3609 32.5681 69.6573 31.7128 65.8399 30.3781 62.3495 28.8699 58.3997 26.1251 56.1611 22.1396 54.9279 19.5788 54.1371 17.0669 53.4471 14.9298 51.7477 13.0152 50.2244 11.6858 48.1249 10.6994 45.9142 8.03934 39.9443 6.77217 33.271 5.53805 26.8932 4.70783 22.5988 4.02994 18.2847 2.98787 14.0327 1.94579 9.78491 0.826881 5.55813 0.229788 1.21747 0.129177 0.99886 0.0218945 0.781712-0.0707921 0.560496-0.343535-0.0885488 0.670701-0.439615 1.02028 0.100856 5.13551 6.43632 10.1473 12.1227 16.9849 15.6117 20.0726 17.1866 24.1747 17.5138 26.75 19.9894 28.7097 21.873 28.9785 24.7474 28.6859 27.3091 28.3006 30.6748 26.6892 33.4446 25.0089 36.3122 24.0873 37.8885 22.9975 39.576 23.3696 41.4914 23.7206 43.2981 25.222 44.6254 26.7117 45.5512 29.5545 47.3169 32.878 48.1116 35.2057 50.6562 37.368 53.0193 38.5663 55.9597 38.806 59.1441 39.125 63.388 38.3941 67.938 37.7453 72.1289" fill="#8FAADC" fill-rule="evenodd" transform="matrix(1 0 0 -1 134 391)"></path><path d="M23.1926 49.976C19.541 54.6926 15.1328 58.7602 10.1739 62.0627 7.52784 63.8241 1.28504 67.3001 0.0253798 62.1028-0.713361 59.0567 2.25996 56.0601 4.21682 54.1504 7.15794 51.2807 10.5596 48.8048 13.0407 45.497 9.96839 44.5156 6.75837 44.3232 4.08877 42.1946 0.928565 39.6721-0.489138 34.8032 2.64453 31.7143 4.17152 30.2094 6.19645 29.2853 8.09804 28.3612 10.57 27.162 13.0875 26.0737 15.6214 25.012 21.0926 22.7218 26.6329 20.3968 31.2986 16.643 36.0536 12.8184 40.5248 6.35104 40.9017 0.110723 40.9391-0.484845 40.7127 0.0573066 41.0669 0.32975 41.2614 0.15478 41.914 0.468652 41.91 0.815857 41.8128 10.0768 40.1533 18.8932 36.3786 27.3756 32.881 35.2399 28.467 43.1628 23.1926 49.976" fill="#8FAADC" fill-rule="evenodd" transform="matrix(1 0 0 -1 92 391)"></path><path d="M-0.0496595 144.204C1.96696 140.03 4.07586 135.954 6.31495 131.885 8.46973 127.968 10.6228 124.081 12.2346 119.902 14.22 114.757 16.3013 109.689 18.4001 104.589 20.5814 99.2886 22.5307 93.8871 24.0947 88.3738 27.1481 77.6093 29.4162 66.5297 30.5376 55.3969 31.1082 49.7348 31.3669 44.0396 31.2109 38.3523 31.0882 33.9063 30.5856 29.5095 30.1669 25.0862 29.7308 20.4861 29.4162 15.8302 29.8029 11.2128 30.1255 7.3531 30.7416 2.76489 33.747 0.0109888 34.3336-0.52872 35.1669 0.143901 34.8256 0.840384 31.2549 8.1399 31.4549 16.0987 32.1376 24.0136 32.5149 28.3838 33.0376 32.7301 33.1856 37.1162 33.3736 42.6971 33.1536 48.2888 32.6269 53.8471 31.5909 64.7739 29.4055 75.5704 26.5708 86.1661 25.1162 91.5983 23.3174 96.9254 21.2454 102.157 19.1667 107.398 16.768 112.495 14.7547 117.762 11.1146 127.288 5.56544 135.735 0.651348 144.612 0.396121 145.073-0.27423 144.668-0.0496595 144.204" fill="#0C023E" fill-rule="evenodd" transform="matrix(1 0 0 -1 103 399)"></path><path d="M0.52045 0.0337777C1.1414 7.03008 1.80402 13.7677 4.32801 20.4423 5.50396 23.5551 6.93082 26.5821 8.06669 29.7068 9.00449 32.2901 10.4085 35.8319 9.68574 38.5772 9.60546 38.8843 9.12792 38.8682 9.03758 38.5772 8.55428 37.0088 8.60735 35.2889 8.26024 33.6816 7.92035 32.1172 7.46866 30.5782 6.9481 29.0581 5.84092 25.8246 4.39396 22.7267 3.14054 19.5442 0.719867 13.3964-0.523499 6.58633 0.00564602 0.0337777 0.0300368-0.275921 0.493236-0.275921 0.52045 0.0337777" fill="#0C023E" fill-rule="evenodd" transform="matrix(1 0 0 -1 133 333)"></path><path d="M-0.0609758 29.3407C2.73424 22.7036 11.1363 22.3204 17.2557 20.8338 21.626 19.773 24.8518 16.9073 27.1682 13.1876 29.7045 9.11793 31.4192 4.33995 32.8291-0.201836L32.9114-0.18064C31.1993 7.77451 28.7467 17.3528 20.4039 21.0539 13.7185 24.0204 4.90855 22.5299 0.632597 29.6284 0.422369 29.9772-0.230093 29.7425-0.0609758 29.3407" fill="#0C023E" fill-rule="evenodd" transform="matrix(1 0 0 -1 93 322)"></path><path d="M-0.124572 1.75939C0.277882 1.39546 0.646083 1.01519 1.05996 0.658836 1.26522 0.481821 1.47383 0.315735 1.73285 0.173659 1.99842 0.028226 2.30799-0.152059 2.67131-0.14767 2.82283-0.145519 2.9288-0.032959 2.84733 0.0577428 2.68119 0.240265 2.3797 0.350673 2.14506 0.48948 1.90233 0.632675 1.65626 0.773633 1.42174 0.921217 0.94911 1.2206 0.517405 1.54632 0.0563206 1.85233L-0.124572 1.75939" fill="#3E579E" fill-rule="evenodd" transform="matrix(1 0 0 -1 129 334)"></path><path d="M0.0133866 30.2324C4.87423 26.2899 9.35843 21.6241 12.9204 16.5121 14.6233 14.0683 16.1956 11.4822 17.6209 8.87164 19.1782 6.01928 20.1997 3.00551 21.4196 0.0147122 21.5121-0.212427 21.9323-0.217825 21.8998 0.0779004 21.2251 6.40508 17.1707 11.8289 13.9228 17.0928 12.2363 19.8269 10.1391 22.0314 7.88408 24.3112 5.55566 26.6663 3.18227 28.8936 0.452361 30.793 0.120158 31.0241-0.303716 30.4905 0.0133866 30.2324" fill="#0C023E" fill-rule="evenodd" transform="matrix(1 0 0 -1 112 383)"></path><path d="M14.2952 42.7983C11.9698 41.4849 11.8942 37.8226 11.8482 35.4843 11.7603 30.9921 12.8765 26.7734 10.8983 22.4927 9.11197 18.6257 6.25828 15.397 4.01529 11.806 1.91423 8.44526-0.15725 4.14844-0.111288 0.102136-0.108628-0.130878 0.250876-0.264196 0.360355-0.0257726 1.20618 1.81151 1.51015 3.89793 2.11691 5.82271 2.79783 7.98729 3.7491 9.95248 4.98135 11.8558 7.1406 15.1909 9.79033 18.227 11.5428 21.8139 13.3886 25.5949 13.1183 29.3394 12.9953 33.4355 12.9183 36.0473 12.6563 40.2444 14.7682 42.1867 15.1005 42.4911 14.6762 43.0124 14.2952 42.7983" fill="#0C023E" fill-rule="evenodd" transform="matrix(1 0 0 -1 136 388)"></path><path d="M26.8954 44.6602C17.6002 44.788-0.105252 44.8892-0.105252 44.8892L4.27616 12.581C5.26122 5.31292 11.5079-0.11083 18.8913-0.11083L26.5253-0.11083 27.264-0.11083 34.8967-0.11083C42.2815-0.11083 48.5279 5.31292 49.5133 12.581L53.8947 44.8892C53.8947 44.8892 36.1892 44.788 26.8954 44.6602" fill="#0C023E" fill-rule="evenodd" transform="matrix(1 0 0 -1 108 433)"></path><path d="M206.66 105.391 153.791 0.967549-0.340063-0.137382 47.2269 106.863 206.66 105.391" fill="#F5F6F9" fill-rule="evenodd" transform="matrix(1 0 0 -1 375 434)"></path><path d="M-0.304828-0.13908-0.275491 8.23824 99.4066 8.23824 145.269 108.861 304.688 108.861 308.695 104.99 152.96 104.99 105.3-0.0549167C105.3-0.0549167-0.304828 0.136135-0.304828-0.13908" fill="#D9D9D9" fill-rule="evenodd" transform="matrix(1 0 0 -1 273 434)"></path><path d="M35.3864 8.91645C33.667 3.67531 24.338-0.372135 14.5484-0.122707 4.75872 0.125453-1.78344 4.57523-0.065457 9.81765 1.65388 15.0574 10.983 19.105 20.7726 18.8555 30.5622 18.606 37.1057 14.1562 35.3864 8.91645" fill="#D9D9D9" fill-rule="evenodd" transform="matrix(1 0 0 -1 466 395)"></path><path d="M0.326476-0.136905 0.0511298-0.0770481C-0.28289 0.0747419-0.431879 0.468788-0.280271 0.804341L47.387 105.863 202.995 105.863C203.364 105.863 203.66 105.566 203.66 105.197 203.66 104.83 203.364 104.532 202.995 104.532L48.2439 104.532 0.931967 0.253158C0.821535 0.00953929 0.578039-0.136905 0.326476-0.136905" fill="#FFFFFF" fill-rule="evenodd" transform="matrix(1 0 0 -1 378 434)"></path><path d="M199.868-0.285731-0.131836-0.285731-0.131836 32.7146 199.868 32.7146 199.868-0.285731" fill="#595959" fill-rule="evenodd" transform="matrix(-1 1.22465e-16 1.22465e-16 1 274 434)"></path><path d="M328.689-0.285731-0.311329-0.285731-0.311329 32.7146 328.689 32.7146 328.689-0.285731" fill="#595959" fill-rule="evenodd" transform="matrix(-1 1.22465e-16 1.22465e-16 1 602 434)"></path><path d="M71.6278-0.30302 7.09075-0.30302C3.09649-0.30302-0.140726 2.95635-0.140726 6.97781L-0.140726 39.4164C-0.140726 43.4364 3.09649 46.6971 7.09075 46.6971L71.6278 46.6971C75.6207 46.6971 78.8593 43.4364 78.8593 39.4164L78.8593 6.97781C78.8593 2.95635 75.6207-0.30302 71.6278-0.30302" fill="#FFFFFF" fill-rule="evenodd" transform="matrix(1 0 0 -1 148 221)"></path><path d="M24.8227 10.1911-0.177401 20.6911-0.177401-0.30899Z" fill="#FFFFFF" fill-rule="evenodd" transform="matrix(1 0 0 -1 221 208)"></path><path d="M8.86874 4.19602C8.86874 1.71057 6.85379-0.303396 4.36868-0.303396 1.88358-0.303396-0.131368 1.71057-0.131368 4.19602-0.131368 6.68275 1.88358 8.69671 4.36868 8.69671 6.85379 8.69671 8.86874 6.68275 8.86874 4.19602" fill="#0C023E" fill-rule="evenodd" transform="matrix(1 0 0 -1 168 202)"></path><path d="M8.85827 4.19602C8.85827 1.71057 6.84332-0.303396 4.35821-0.303396 1.87311-0.303396-0.14184 1.71057-0.14184 4.19602-0.14184 6.68275 1.87311 8.69671 4.35821 8.69671 6.84332 8.69671 8.85827 6.68275 8.85827 4.19602" fill="#0C023E" fill-rule="evenodd" transform="matrix(1 0 0 -1 183 202)"></path><path d="M7.86461 4.19602C7.86461 1.71057 6.07355-0.303396 3.86457-0.303396 1.65558-0.303396-0.135482 1.71057-0.135482 4.19602-0.135482 6.68275 1.65558 8.69671 3.86457 8.69671 6.07355 8.69671 7.86461 6.68275 7.86461 4.19602" fill="#0C023E" fill-rule="evenodd" transform="matrix(1 0 0 -1 199 202)"></path><path d="M166.304 132.651 17.0226 132.651C7.43488 132.651-0.336778 124.921-0.336778 115.384L-0.336778 44.9451C-0.336778 35.4101 7.43488 27.6789 17.0226 27.6789L30.4027 27.6789C30.7792 21.2944 29.8592 11.7953 24.4978-0.349507 41.745 7.56376 51.6772 19.4455 56.8651 27.6789L166.304 27.6789C175.89 27.6789 183.663 35.4101 183.663 44.9451L183.663 115.384C183.663 124.921 175.89 132.651 166.304 132.651" fill="#FF4332" fill-rule="evenodd" transform="matrix(1 0 0 -1 382 208)"></path><path d="M77.9678-0.417213 3.38954-0.417213C1.34109-0.417213-0.32132 1.37358-0.32132 3.58216-0.32132 5.79199 1.34109 7.5829 3.38954 7.5829L77.9678 7.5829C80.0176 7.5829 81.6787 5.79199 81.6787 3.58216 81.6787 1.37358 80.0176-0.417213 77.9678-0.417213" fill="#FFFFFF" fill-rule="evenodd" transform="matrix(1 0 0 -1 407 109)"></path><path d="M130.408-0.322513 1.91898-0.322513C0.673811-0.322513-0.336485 0.572507-0.336485 1.67697-0.336485 2.78144 0.673811 3.67758 1.91898 3.67758L130.408 3.67758C131.653 3.67758 132.664 2.78144 132.664 1.67697 132.664 0.572507 131.653-0.322513 130.408-0.322513" fill="#FFFFFF" fill-rule="evenodd" transform="matrix(1 0 0 -1 407 130)"></path><path d="M130.408-0.390556 1.91898-0.390556C0.673811-0.390556-0.336485 0.729278-0.336485 2.10944-0.336485 3.48961 0.673811 4.60944 1.91898 4.60944L130.408 4.60944C131.653 4.60944 132.664 3.48961 132.664 2.10944 132.664 0.729278 131.653-0.390556 130.408-0.390556" fill="#FFFFFF" fill-rule="evenodd" transform="matrix(1 0 0 -1 407 143)"></path><path d="M102.416-0.377394 1.92905-0.377394C0.683555-0.377394-0.327009 0.74244-0.327009 2.12261-0.327009 3.50277 0.683555 4.62261 1.92905 4.62261L102.416 4.62261C103.663 4.62261 104.673 3.50277 104.673 2.12261 104.673 0.74244 103.663-0.377394 102.416-0.377394" fill="#FFFFFF" fill-rule="evenodd" transform="matrix(1 0 0 -1 407 156)"></path><path d="M42.9878-0.244487 2.39413-0.244487C0.900565-0.244487-0.309057 0.924921-0.309057 2.36584L-0.309057 29.1452C-0.309057 30.5861 0.900565 31.7555 2.39413 31.7555L42.9878 31.7555C44.4813 31.7555 45.6909 30.5861 45.6909 29.1452L45.6909 2.36584C45.6909 0.924921 44.4813-0.244487 42.9878-0.244487" fill="#FFFFFF" fill-rule="evenodd" transform="matrix(1 0 0 -1 405 271)"></path><path d="M22.4724-0.261016C22.2471-0.261016 22.0206-0.181689 21.8355-0.0258325L0.0576981 18.4296C-0.367275 18.7905-0.427281 19.4357-0.075532 19.8732 0.277475 20.3092 0.907748 20.3694 1.32999 20.0099L22.455 2.10933 43.0404 20.4883C43.4561 20.8587 44.0876 20.8136 44.45 20.3871 44.8123 19.9593 44.7684 19.3127 44.3514 18.9408L23.1278-0.00807266C22.94-0.176199 22.7055-0.261016 22.4724-0.261016" fill="#647AB4" fill-rule="evenodd" transform="matrix(1 0 0 -1 406 260)"></path><path d="M0.694558-0.243545C0.450065-0.243545 0.205573-0.151705 0.0150091 0.0319764-0.379367 0.412863-0.395204 1.044-0.019253 1.44345L15.0092 17.4451C15.3812 17.8459 16.0083 17.8618 16.4013 17.481 16.797 17.1003 16.8127 16.4691 16.4368 16.0683L1.40847 0.0666787C1.21522-0.139753 0.954888-0.243545 0.694558-0.243545" fill="#647AB4" fill-rule="evenodd" transform="matrix(1 0 0 -1 406 270)"></path><path d="M15.6985-0.240934C15.4453-0.240934 15.1919-0.144871 14.998 0.0486013L-0.0225409 15.0742C-0.40771 15.4598-0.40771 16.0862-0.0198402 16.4706 0.367926 16.8562 0.994605 16.8548 1.37977 16.4692L16.4003 1.44364C16.7856 1.05679 16.7856 0.431609 16.3977 0.0472542 16.2038-0.144871 15.9519-0.240934 15.6985-0.240934" fill="#647AB4" fill-rule="evenodd" transform="matrix(1 0 0 -1 434 270)"></path><path d="M25.6873 13.233C25.6873 5.7771 19.8675-0.267695 12.6873-0.267695 5.50711-0.267695-0.312678 5.7771-0.312678 13.233-0.312678 20.6876 5.50711 26.7324 12.6873 26.7324 19.8675 26.7324 25.6873 20.6876 25.6873 13.233" fill="#FF0600" fill-rule="evenodd" transform="matrix(1 0 0 -1 440 251)"></path><text fill="#FFFFFF" font-family="Arial,Arial_MSFontService,sans-serif" font-weight="700" font-size="16" transform="translate(443.548 243)">8</text><path d="M83.2688-0.281167 4.95604-0.281167C2.00503-0.281167-0.387626 2.11772-0.387626 5.0764L-0.387626 17.3613C-0.387626 20.3201 2.00503 22.7188 4.95604 22.7188L83.2688 22.7188C86.2199 22.7188 88.6125 20.3201 88.6125 17.3613L88.6125 5.0764C88.6125 2.11772 86.2199-0.281167 83.2688-0.281167" fill="#0C023E" fill-rule="evenodd" transform="matrix(1 0 0 -1 504 233)"></path><path d="M5.0934-0.279741C4.73805-0.279741 4.45283-0.15582 4.23657 0.0947509 4.02032 0.343957 3.92571 0.657066 3.95274 1.03156L4.2933 3.99528 4.25679 4.14449 4.06619 4.10713 1.59287 2.34548C1.2887 2.1203 0.971023 2.03762 0.641318 2.10162 0.31289 2.1629 0.0466142 2.35744-0.156126 2.68262-0.384621 3.0824-0.429213 3.43286-0.290009 3.73275-0.152082 4.03253 0.0843952 4.24448 0.41293 4.36966L3.19041 5.60772 3.30525 5.71968 3.19041 5.8329 0.41293 7.07085C0.0587467 7.22017-0.169642 7.45731-0.269681 7.78248-0.372382 8.10766-0.333217 8.43283-0.156126 8.75801 0.0466142 9.08308 0.31289 9.27636 0.641318 9.34026 0.971023 9.40154 1.2887 9.33228 1.59287 9.13239L4.06619 7.33213 4.25679 7.29614 4.2933 7.44534 3.95274 10.4091C3.92571 10.7836 4.02702 11.0967 4.25679 11.3459 4.48518 11.5964 4.78935 11.7204 5.16918 11.7204 5.52464 11.7204 5.81518 11.5964 6.04367 11.3459 6.27206 11.0967 6.36125 10.7836 6.30984 10.4091L5.9679 7.44534 6.00579 7.29614 6.19767 7.33213 8.66982 9.09514C8.97249 9.32169 9.29698 9.40154 9.64021 9.34026 9.98087 9.27636 10.2403 9.08308 10.4187 8.75801 10.6472 8.35823 10.6918 8.00766 10.5499 7.70788 10.412 7.40799 10.1768 7.19477 9.84699 7.07085L7.07089 5.8329 6.95733 5.71968 7.07089 5.60772 9.84699 4.36966C10.2038 4.22046 10.4376 3.98195 10.5499 3.65814 10.6648 3.3316 10.6214 3.00643 10.4187 2.68262 10.2403 2.35744 9.98087 2.1629 9.64021 2.10162 9.29698 2.03762 8.97249 2.10823 8.66982 2.30686L6.19767 4.10713 6.00579 4.14449 5.9679 3.99528 6.30984 1.03156C6.36125 0.657066 6.26525 0.343957 6.02601 0.0947509 5.78282-0.15582 5.47323-0.279741 5.0934-0.279741" fill="#FFFFFF" fill-rule="evenodd" transform="matrix(1 0 0 -1 509 227)"></path><path d="M4.61945-0.279741C4.29744-0.279741 4.03822-0.15582 3.84151 0.0947509 3.6449 0.343957 3.55897 0.657066 3.58229 1.03156L3.89318 3.99528 3.85873 4.14449 3.68679 4.10713 1.43793 2.34548C1.16149 2.1203 0.872666 2.03762 0.572908 2.10162 0.274311 2.1629 0.0321238 2.35744-0.152201 2.68262-0.359845 3.0824-0.400387 3.43286-0.273827 3.73275-0.148428 4.03253 0.065312 4.24448 0.365167 4.36966L2.89047 5.60772 2.99487 5.71968 2.89047 5.8329 0.365167 7.07085C0.0432511 7.22017-0.164393 7.45731-0.256604 7.78248-0.348718 8.10766-0.313111 8.43283-0.152201 8.75801 0.0321238 9.08308 0.274311 9.27636 0.572908 9.34026 0.872666 9.40154 1.16149 9.33228 1.43793 9.13239L3.68679 7.33213 3.85873 7.29614 3.89318 7.44534 3.58229 10.4091C3.55897 10.7836 3.65109 11.0967 3.85873 11.3459 4.06647 11.5964 4.34291 11.7204 4.6894 11.7204 5.01268 11.7204 5.27683 11.5964 5.48457 11.3459 5.69221 11.0967 5.77329 10.7836 5.72666 10.4091L5.41567 7.44534 5.45012 7.29614 5.62332 7.33213 7.87092 9.09514C8.1462 9.32169 8.44228 9.40154 8.75327 9.34026 9.06405 9.27636 9.30005 9.08308 9.46231 8.75801 9.6687 8.35823 9.70924 8.00766 9.58142 7.70788 9.45612 7.40799 9.24228 7.19477 8.94243 7.07085L6.41848 5.8329 6.31514 5.71968 6.41848 5.60772 8.94243 4.36966C9.2656 4.22046 9.47944 3.98195 9.58142 3.65814 9.68592 3.3316 9.64664 3.00643 9.46231 2.68262 9.30005 2.35744 9.06405 2.1629 8.75327 2.10162 8.44228 2.03762 8.1462 2.10823 7.87092 2.30686L5.62332 4.10713 5.45012 4.14449 5.41567 3.99528 5.72666 1.03156C5.77329 0.657066 5.68602 0.343957 5.46734 0.0947509 5.24731-0.15582 4.96594-0.279741 4.61945-0.279741" fill="#FFFFFF" fill-rule="evenodd" transform="matrix(1 0 0 -1 526 227)"></path><path d="M5.07063-0.279741C4.71655-0.279741 4.43005-0.15582 4.21508 0.0947509 3.99754 0.343957 3.90282 0.657066 3.92996 1.03156L4.2718 3.99528 4.23402 4.14449 4.0448 4.10713 1.56998 2.34548C1.26593 2.1203 0.948248 2.03762 0.61982 2.10162 0.290009 2.1629 0.0238392 2.35744-0.177624 2.68262-0.407396 3.0824-0.451988 3.43286-0.3114 3.73275-0.173473 4.03253 0.0616202 4.24448 0.391432 4.36966L3.16902 5.60772 3.28247 5.71968 3.16902 5.8329 0.391432 7.07085C0.0373552 7.22017-0.192417 7.45731-0.292563 7.78248-0.39388 8.10766-0.354715 8.43283-0.177624 8.75801 0.0238392 9.08308 0.290009 9.27636 0.61982 9.34026 0.948248 9.40154 1.26593 9.33228 1.56998 9.13239L4.0448 7.33213 4.23402 7.29614 4.2718 7.44534 3.92996 10.4091C3.90282 10.7836 4.00563 11.0967 4.23402 11.3459 4.46241 11.5964 4.76657 11.7204 5.14768 11.7204 5.50325 11.7204 5.7924 11.5964 6.02079 11.3459 6.25056 11.0967 6.33985 10.7836 6.28707 10.4091L5.94651 7.44534 5.98439 7.29614 6.1749 7.33213 8.64694 9.09514C8.94983 9.32169 9.2741 9.40154 9.61743 9.34026 9.95937 9.27636 10.2188 9.08308 10.3973 8.75801 10.6243 8.35823 10.669 8.00766 10.5284 7.70788 10.3905 7.40799 10.154 7.19477 9.8256 7.07085L7.04939 5.8329 6.93456 5.71968 7.04939 5.60772 9.8256 4.36966C10.1811 4.22046 10.4149 3.98195 10.5284 3.65814 10.642 3.3316 10.5987 3.00643 10.3973 2.68262 10.2188 2.35744 9.95937 2.1629 9.61743 2.10162 9.2741 2.03762 8.94983 2.10823 8.64694 2.30686L6.1749 4.10713 5.98439 4.14449 5.94651 3.99528 6.28707 1.03156C6.33985 0.657066 6.24248 0.343957 6.00323 0.0947509 5.76133-0.15582 5.45046-0.279741 5.07063-0.279741" fill="#FFFFFF" fill-rule="evenodd" transform="matrix(1 0 0 -1 542 227)"></path><path d="M5.0586-0.279741C4.70442-0.279741 4.41931-0.15582 4.20433 0.0947509 3.98669 0.343957 3.89208 0.657066 3.91911 1.03156L4.26105 3.99528 4.22189 4.14449 4.03266 4.10713 1.55924 2.34548C1.25518 2.1203 0.937499 2.03762 0.607688 2.10162 0.27926 2.1629 0.0129839 2.35744-0.189756 2.68262-0.418145 3.0824-0.462737 3.43286-0.323533 3.73275-0.185712 4.03253 0.0508712 4.24448 0.379299 4.36966L3.15678 5.60772 3.27172 5.71968 3.15678 5.8329 0.379299 7.07085C0.0251163 7.22017-0.203272 7.45731-0.303312 7.78248-0.406012 8.10766-0.366741 8.43283-0.189756 8.75801 0.0129839 9.08308 0.27926 9.27636 0.607688 9.34026 0.937499 9.40154 1.25518 9.33228 1.55924 9.13239L4.03266 7.33213 4.22189 7.29614 4.26105 7.44534 3.91911 10.4091C3.89208 10.7836 3.9935 11.0967 4.22189 11.3459 4.45166 11.5964 4.75572 11.7204 5.13555 11.7204 5.49101 11.7204 5.78165 11.5964 6.01004 11.3459 6.23854 11.0967 6.32762 10.7836 6.27632 10.4091L5.93437 7.44534 5.97216 7.29614 6.16415 7.33213 8.63619 9.09514C8.93897 9.32169 9.26335 9.40154 9.60668 9.34026 9.94724 9.27636 10.2068 9.08308 10.3852 8.75801 10.6136 8.35823 10.6582 8.00766 10.5163 7.70788 10.3785 7.40799 10.1433 7.19477 9.81347 7.07085L7.03726 5.8329 6.9237 5.71968 7.03726 5.60772 9.81347 4.36966C10.1703 4.22046 10.4041 3.98195 10.5163 3.65814 10.6312 3.3316 10.5879 3.00643 10.3852 2.68262 10.2068 2.35744 9.94724 2.1629 9.60668 2.10162 9.26335 2.03762 8.93897 2.10823 8.63619 2.30686L6.16415 4.10713 5.97216 4.14449 5.93437 3.99528 6.27632 1.03156C6.32762 0.657066 6.23173 0.343957 5.99248 0.0947509 5.74919-0.15582 5.43971-0.279741 5.0586-0.279741" fill="#FFFFFF" fill-rule="evenodd" transform="matrix(1 0 0 -1 558 227)"></path><path d="M5.04776-0.279741C4.69365-0.279741 4.40841-0.15582 4.19352 0.0947509 3.97586 0.343957 3.88124 0.657066 3.90689 1.03156L4.25025 3.99528 4.21108 4.14449 4.02184 4.10713 1.5482 2.34548C1.24411 2.1203 0.926405 2.03762 0.596565 2.10162 0.268108 2.1629 0.00180939 2.35744-0.200948 2.68262-0.429357 3.0824-0.473953 3.43286-0.334736 3.73275-0.196904 4.03253 0.0383164 4.24448 0.368157 4.36966L3.14588 5.60772 3.26083 5.71968 3.14588 5.8329 0.368157 7.07085C0.0139429 7.22017-0.214465 7.45731-0.315791 7.78248-0.417223 8.10766-0.377949 8.43283-0.200948 8.75801 0.00180939 9.08308 0.268108 9.27636 0.596565 9.34026 0.926405 9.40154 1.24411 9.33228 1.5482 9.13239L4.02184 7.33213 4.21108 7.29614 4.25025 7.44534 3.90689 10.4091C3.88124 10.7836 3.98256 11.0967 4.21108 11.3459 4.43949 11.5964 4.74368 11.7204 5.12482 11.7204 5.48031 11.7204 5.77088 11.5964 5.99939 11.3459 6.2279 11.0967 6.31699 10.7836 6.26569 10.4091L5.92372 7.44534 5.9615 7.29614 6.15212 7.33213 8.62449 9.09514C8.92719 9.32169 9.25298 9.40154 9.59496 9.34026 9.93693 9.27636 10.1965 9.08308 10.3749 8.75801 10.602 8.35823 10.6466 8.00766 10.506 7.70788 10.3682 7.40799 10.1329 7.19477 9.80314 7.07085L7.0267 5.8329 6.91175 5.71968 7.0267 5.60772 9.80314 4.36966C10.1586 4.22046 10.3939 3.98195 10.506 3.65814 10.621 3.3316 10.5777 3.00643 10.3749 2.68262 10.1965 2.35744 9.93693 2.1629 9.59496 2.10162 9.25298 2.03762 8.92719 2.10823 8.62449 2.30686L6.15212 4.10713 5.9615 4.14449 5.92372 3.99528 6.26569 1.03156C6.31699 0.657066 6.22109 0.343957 5.98044 0.0947509 5.73852-0.15582 5.42901-0.279741 5.04776-0.279741" fill="#5DA4DE" fill-rule="evenodd" transform="matrix(1 0 0 -1 574 227)"></path><path d="M30.7738-0.312909 2.64149-0.312909C1.02169-0.312909-0.292941 1.03019-0.292941 2.68662-0.292941 4.34399 1.02169 5.68718 2.64149 5.68718L30.7738 5.68718C32.3947 5.68718 33.7071 4.34399 33.7071 2.68662 33.7071 1.03019 32.3947-0.312909 30.7738-0.312909" fill="#FFFFFF" fill-rule="evenodd" transform="matrix(1 0 0 -1 507 109)"></path><text fill="#FFFFFF" font-family="Arial,Arial_MSFontService,sans-serif" font-weight="700" font-size="16" transform="translate(452.956 243)">5</text></g></svg>